<svg width="86" height="12" viewBox="0 0 86 12" fill="none" xmlns="http://www.w3.org/2000/svg">
<path d="M34.5921 0C36.014 0 37.1936 0.366258 38.1308 1.09877C39.0679 1.83129 39.6874 2.82773 39.989 4.08808H37.5975C37.3498 3.47406 36.962 2.98931 36.4341 2.63383C35.917 2.27834 35.2923 2.1006 34.5597 2.1006C33.9565 2.1006 33.4125 2.25141 32.9277 2.55303C32.443 2.85466 32.066 3.28555 31.7966 3.84571C31.5273 4.40587 31.3927 5.06298 31.3927 5.81704C31.3927 6.56033 31.5273 7.21205 31.7966 7.77221C32.066 8.33237 32.443 8.76326 32.9277 9.06488C33.4125 9.36651 33.9565 9.51732 34.5597 9.51732C35.2923 9.51732 35.917 9.33958 36.4341 8.98409C36.962 8.6286 37.3498 8.14385 37.5975 7.52983H39.989C39.6874 8.79019 39.0679 9.78663 38.1308 10.5191C37.1936 11.2517 36.014 11.6179 34.5921 11.6179C33.5041 11.6179 32.5399 11.3755 31.6997 10.8908C30.8702 10.3953 30.2239 9.70583 29.7607 8.82251C29.3082 7.93918 29.082 6.93736 29.082 5.81704C29.082 4.68595 29.3082 3.67874 29.7607 2.79541C30.2239 1.91208 30.8702 1.22804 31.6997 0.743288C32.5292 0.247763 33.4933 0 34.5921 0Z" fill="white"/>
<path d="M51.3611 11.521H49.0828L43.9767 3.76492V11.521H41.6984V0.11311H43.9767L49.0828 7.93379V0.11311H51.3611V11.521Z" fill="white"/>
<path d="M63.0854 11.521H60.8071L55.701 3.76492V11.521H53.4227V0.11311H55.701L60.8071 7.93379V0.11311H63.0854V11.521Z" fill="white"/>
<path d="M70.3016 0C71.7235 0 72.9031 0.366258 73.8403 1.09877C74.7775 1.83129 75.3969 2.82773 75.6985 4.08808H73.307C73.0593 3.47406 72.6715 2.98931 72.1436 2.63383C71.6266 2.27834 71.0018 2.1006 70.2693 2.1006C69.666 2.1006 69.122 2.25141 68.6372 2.55303C68.1525 2.85466 67.7755 3.28555 67.5062 3.84571C67.2369 4.40587 67.1022 5.06298 67.1022 5.81704C67.1022 6.56033 67.2369 7.21205 67.5062 7.77221C67.7755 8.33237 68.1525 8.76326 68.6372 9.06488C69.122 9.36651 69.666 9.51732 70.2693 9.51732C71.0018 9.51732 71.6266 9.33958 72.1436 8.98409C72.6715 8.6286 73.0593 8.14385 73.307 7.52983H75.6985C75.3969 8.79019 74.7775 9.78663 73.8403 10.5191C72.9031 11.2517 71.7235 11.6179 70.3016 11.6179C69.2136 11.6179 68.2494 11.3755 67.4092 10.8908C66.5797 10.3953 65.9334 9.70583 65.4702 8.82251C65.0178 7.93918 64.7915 6.93736 64.7915 5.81704C64.7915 4.68595 65.0178 3.67874 65.4702 2.79541C65.9334 1.91208 66.5797 1.22804 67.4092 0.743288C68.2387 0.247763 69.2028 0 70.3016 0Z" fill="white"/>
<path d="M85.1639 0.11311V1.92285H82.013V11.521H79.7347V1.92285H76.5999V0.11311H85.1639Z" fill="white"/>
<circle cx="14.8457" cy="5.22359" r="4.738" fill="white"/>
<circle cx="3.57982" cy="5.3289" r="3.57982" fill="white"/>
</svg>
