<svg width="86" height="13" viewBox="0 0 86 13" fill="none" xmlns="http://www.w3.org/2000/svg">
<path d="M34.592 0.479034C36.0139 0.479034 37.1935 0.845292 38.1307 1.57781C39.0679 2.31032 39.6873 3.30676 39.9889 4.56712H37.5975C37.3497 3.9531 36.9619 3.46835 36.4341 3.11286C35.917 2.75737 35.2922 2.57963 34.5597 2.57963C33.9564 2.57963 33.4124 2.73044 32.9277 3.03207C32.4429 3.33369 32.0659 3.76458 31.7966 4.32474C31.5273 4.8849 31.3926 5.54201 31.3926 6.29607C31.3926 7.03936 31.5273 7.69108 31.7966 8.25124C32.0659 8.8114 32.4429 9.24229 32.9277 9.54392C33.4124 9.84554 33.9564 9.99635 34.5597 9.99635C35.2922 9.99635 35.917 9.81861 36.4341 9.46312C36.9619 9.10764 37.3497 8.62289 37.5975 8.00887H39.9889C39.6873 9.26922 39.0679 10.2657 38.1307 10.9982C37.1935 11.7307 36.0139 12.0969 34.592 12.0969C33.504 12.0969 32.5399 11.8546 31.6996 11.3698C30.8702 10.8743 30.2238 10.1849 29.7606 9.30154C29.3082 8.41821 29.082 7.41639 29.082 6.29607C29.082 5.16498 29.3082 4.15777 29.7606 3.27444C30.2238 2.39112 30.8702 1.70708 31.6996 1.22232C32.5291 0.726797 33.4932 0.479034 34.592 0.479034Z" fill="#413E4B"/>
<path d="M51.361 12H49.0827L43.9766 4.24395V12H41.6983V0.592144H43.9766L49.0827 8.41283V0.592144H51.361V12Z" fill="#413E4B"/>
<path d="M63.0854 12H60.807L55.701 4.24395V12H53.4226V0.592144H55.701L60.807 8.41283V0.592144H63.0854V12Z" fill="#413E4B"/>
<path d="M70.3015 0.479034C71.7234 0.479034 72.903 0.845292 73.8402 1.57781C74.7774 2.31032 75.3968 3.30676 75.6984 4.56712H73.307C73.0592 3.9531 72.6714 3.46835 72.1436 3.11286C71.6265 2.75737 71.0017 2.57963 70.2692 2.57963C69.6659 2.57963 69.1219 2.73044 68.6372 3.03207C68.1524 3.33369 67.7754 3.76458 67.5061 4.32474C67.2368 4.8849 67.1021 5.54201 67.1021 6.29607C67.1021 7.03936 67.2368 7.69108 67.5061 8.25124C67.7754 8.8114 68.1524 9.24229 68.6372 9.54392C69.1219 9.84554 69.6659 9.99635 70.2692 9.99635C71.0017 9.99635 71.6265 9.81861 72.1436 9.46312C72.6714 9.10764 73.0592 8.62289 73.307 8.00887H75.6984C75.3968 9.26922 74.7774 10.2657 73.8402 10.9982C72.903 11.7307 71.7234 12.0969 70.3015 12.0969C69.2135 12.0969 68.2494 11.8546 67.4091 11.3698C66.5797 10.8743 65.9333 10.1849 65.4701 9.30154C65.0177 8.41821 64.7915 7.41639 64.7915 6.29607C64.7915 5.16498 65.0177 4.15777 65.4701 3.27444C65.9333 2.39112 66.5797 1.70708 67.4091 1.22232C68.2386 0.726797 69.2027 0.479034 70.3015 0.479034Z" fill="#413E4B"/>
<path d="M85.1639 0.592144V2.40189H82.013V12H79.7346V2.40189H76.5999V0.592144H85.1639Z" fill="#413E4B"/>
<circle cx="14.8457" cy="5.70263" r="4.738" fill="#991851"/>
<circle cx="3.57982" cy="5.80794" r="3.57982" fill="#FF7E47"/>
</svg>
