<svg width="28" height="28" viewBox="0 0 28 28" fill="none" xmlns="http://www.w3.org/2000/svg">
<path d="M4.66675 7.00001C4.66675 6.69059 4.78966 6.39384 5.00846 6.17505C5.22725 5.95626 5.524 5.83334 5.83341 5.83334H22.1667C22.4762 5.83334 22.7729 5.95626 22.9917 6.17505C23.2105 6.39384 23.3334 6.69059 23.3334 7.00001C23.3334 7.30943 23.2105 7.60618 22.9917 7.82497C22.7729 8.04376 22.4762 8.16668 22.1667 8.16668H5.83341C5.524 8.16668 5.22725 8.04376 5.00846 7.82497C4.78966 7.60618 4.66675 7.30943 4.66675 7.00001ZM4.66675 21C4.66675 20.6906 4.78966 20.3938 5.00846 20.1751C5.22725 19.9563 5.524 19.8333 5.83341 19.8333H22.1667C22.4762 19.8333 22.7729 19.9563 22.9917 20.1751C23.2105 20.3938 23.3334 20.6906 23.3334 21C23.3334 21.3094 23.2105 21.6062 22.9917 21.825C22.7729 22.0438 22.4762 22.1667 22.1667 22.1667H5.83341C5.524 22.1667 5.22725 22.0438 5.00846 21.825C4.78966 21.6062 4.66675 21.3094 4.66675 21ZM12.8334 12.8333C12.524 12.8333 12.2272 12.9563 12.0085 13.1751C11.7897 13.3938 11.6667 13.6906 11.6667 14C11.6667 14.3094 11.7897 14.6062 12.0085 14.825C12.2272 15.0438 12.524 15.1667 12.8334 15.1667H22.1667C22.4762 15.1667 22.7729 15.0438 22.9917 14.825C23.2105 14.6062 23.3334 14.3094 23.3334 14C23.3334 13.6906 23.2105 13.3938 22.9917 13.1751C22.7729 12.9563 22.4762 12.8333 22.1667 12.8333H12.8334Z" fill="#6D6D6D"/>
</svg>
