<svg width="22" height="22" viewBox="0 0 22 22" fill="none" xmlns="http://www.w3.org/2000/svg">
<path d="M15.5662 10.4182H13.8287V8.68068H15.5662M12.0913 10.4182H10.3538V8.68068H12.0913M8.61632 10.4182H6.87884V8.68068H8.61632M18.1724 2.59952H4.27263C3.81182 2.59952 3.36989 2.78257 3.04405 3.10841C2.71821 3.43425 2.53516 3.87619 2.53516 4.33699V19.9743L6.0101 16.4993H18.1724C18.6332 16.4993 19.0752 16.3163 19.401 15.9904C19.7268 15.6646 19.9099 15.2226 19.9099 14.7618V4.33699C19.9099 3.87619 19.7268 3.43425 19.401 3.10841C19.0752 2.78257 18.6332 2.59952 18.1724 2.59952Z" fill="#EB1974"/>
</svg>
